<?xml version="1.0" encoding="utf-8"?>
<!-- Generator: Adobe Illustrator 23.0.1, SVG Export Plug-In . SVG Version: 6.00 Build 0)  -->
<svg version="1.1" id="Layer_1" xmlns="http://www.w3.org/2000/svg" xmlns:xlink="http://www.w3.org/1999/xlink" x="0px" y="0px"
	 viewBox="0 0 1000 1000" style="enable-background:new 0 0 1000 1000;" xml:space="preserve">
<style type="text/css">
	.st0{fill:#E44F26;}
	.st1{fill:#F1672A;}
	.st2{fill:#EBEBEB;}
	.st3{fill:#FFFFFF;}
</style>
<g>
	<path class="st0" d="M141.1,898.1L61.3,2.5h877.4L858.8,898l-359.4,99.6L141.1,898.1z"/>
	<path class="st1" d="M790.4,840.9l68.3-765.2H500v845.8L790.4,840.9z"/>
	<path class="st2" d="M499.6,185.5H224.5l29.6,332.2H500V407.9H354.7l-10-112.5H500V185.5H499.6z M500,692.8l-0.5,0.1l-122.3-33
		l-7.8-87.6H259.1l15.4,172.5l225,62.2l0.5-0.2V692.8z"/>
	<path class="st3" d="M499.6,517.7h135.3l-12.4,142.4l-122.5,33.1v114.3l225.2-62.4l30.2-337.2H500L499.6,517.7z M772.2,215
		l2.6-29.5H499.6v109.8h265.3l2.2-24.7L772.2,215z"/>
</g>
</svg>
