<svg width="1000" height="336" viewBox="0 0 1000 336" fill="none" xmlns="http://www.w3.org/2000/svg">
<path d="M-0.799988 88.5H52.4V141H101V88.5H154.2V247.5H101V194.3H52.4V247.5H-0.799988V88.5ZM224 141.2H177.1V88.5H323.8V141.2H277V247.5H223.8V141.2H224ZM347.2 88.5H402.6L436.7 144.4L470.8 88.5H526.1V247.5H473.2V168.7L436.6 225.2H435.7L399.3 168.7V247.5H347.3L347.2 88.5ZM552.6 88.5H605.8V195H680.5V247.6H552.6V88.5Z" fill="#010101"/>
<path d="M705.8 0.700012H1000.8L973.9 301.8L853.1 335.3L732.6 301.9L705.8 0.700012Z" fill="#E44F26"/>
<path d="M950.9 282.6L973.9 25.3H853.4V309.7L950.9 282.6Z" fill="#F1672A"/>
<path d="M804.4 137L801 99.2H853.3V62.3H760.7L770.7 174H853.3V137H804.4ZM772.3 192.4L777.5 250.4L853.2 271.4H853.4V233H853.2L812.2 221.8L809.6 192.3H789.6L772.3 192.4Z" fill="#EBEBEB"/>
<path d="M938.1 146.9L939 137H853.2V173.9H898.7L894.4 221.8L853.2 232.9V271.3L928.9 250.3L929.5 244.1L938.1 146.9ZM853.2 99.2H942.4L945.7 62.2H853.2V99V99.2Z" fill="white"/>
</svg>
