<?xml version="1.0" encoding="utf-8"?>
<!-- Generator: Adobe Illustrator 25.2.1, SVG Export Plug-In . SVG Version: 6.00 Build 0)  -->
<svg version="1.1" id="Layer_1" xmlns="http://www.w3.org/2000/svg" xmlns:xlink="http://www.w3.org/1999/xlink" x="0px" y="0px"
	 viewBox="0 0 2483.1 693.6" style="enable-background:new 0 0 2483.1 693.6;" xml:space="preserve">
<style type="text/css">
	.st0{fill:#F7A600;}
	.st1{fill:#575756;}
	.st2{fill:#646363;}
</style>
<g id="katman_2">
	<g id="katman_1-2">
		<path class="st0" d="M350.8,499.3c-7.4,0-14.7-2.1-21-6.2c-6.5-3.9-11.3-10.1-13.6-17.3L246,298.3l-69,177.6
			c-3.3,6.6-8.2,12.3-14.2,16.6c-5.9,4.4-13,6.8-20.4,6.8c-17.3,0-29.2-7.8-35.8-23.4L3.1,209.5c-4.1-9-4.1-18.3,0-27.7
			c4-9.3,11.6-16.7,21-20.4c9-4.1,18.3-3.9,27.7,0.6c9,4.1,16.2,11.3,20.3,20.3l70.3,177.6l69-177.6c3.3-6.6,8.2-12.3,14.2-16.6
			c5.9-4.4,13-6.8,20.4-6.8c17.3,0,28.8,7.8,34.5,23.4l70.3,177.6l70.3-177.6c4-8.9,11-16.1,19.7-20.4c9-4.5,18.5-4.7,28.4-0.6
			c9,4.1,16.2,11.3,20.4,20.4c4.5,9.5,4.7,18.7,0.6,27.7L385.4,475.8C379.6,491.5,368.1,499.3,350.8,499.3"/>
		<path class="st0" d="M835.7,329.1c0,10.7-3.7,19.5-11.1,26.5c-6.9,6.8-16.2,10.6-25.9,10.5c-4.9,0-8.2-0.4-9.9-1.2l-143.3,1.2
			c-9.7,0.1-19-3.7-25.9-10.5c-7.4-7-11.1-15.8-11.1-26.5c-0.1-9.7,3.7-19,10.5-25.9c7-7.4,15.8-11.1,26.5-11.1l107.6-1.2
			c-7.4-16.4-19.1-30-35.1-40.7c-15.5-10.5-33.7-16.1-52.4-16h-11.1c-26.3,0-48.9,9.2-67.8,27.7s-28.4,40.9-28.4,67.2
			c0,26.3,9.5,48.9,28.4,67.8s41.5,28.3,67.8,28.4h11.1c27.1,0,50.6-10.7,70.3-32.1c6.6-7.4,15-11.3,25.3-11.7
			c10.1-0.5,20,2.8,27.7,9.2c7.4,6.6,11.3,15,11.7,25.3c0.5,10.1-2.8,20-9.2,27.7c-15.9,17.7-35.5,31.8-57.3,41.3
			c-21.6,9.4-44.9,14.2-68.4,14.2h-11.1c-23.8,0-46-4.5-66.6-13.6c-40.4-17.4-72.6-49.6-90-90c-9-20.5-13.6-42.7-13.6-66.6
			c-0.1-22.7,4.5-45.2,13.6-66c8.6-20.2,20.9-38.7,36.4-54.2c15.4-15.4,33.6-27.7,53.6-36.4c20.5-9,42.7-13.6,66.6-13.6h11.1
			c44.6-0.2,87.4,17.3,119,48.7c15.3,15.3,27.6,33.3,36.4,53c9.1,20.4,14.1,42.4,14.8,64.7V329.1L835.7,329.1z"/>
		<path class="st0" d="M1039.6,499.3h-11.1c-23.9,0-46.1-4.5-66.6-13.6c-40.4-17.4-72.6-49.6-90-90c-9-20.5-13.6-42.7-13.6-66.6
			V38.7c0-10.7,3.5-19.7,10.5-27.1c7-7.4,15.8-11.1,26.5-11.1c10.7,0,19.5,3.7,26.5,11.1c7,7.4,10.5,16.4,10.5,27.1v149.8
			c28.8-19.7,60.8-29.6,96.2-29.6h11.1c22.7-0.1,45.2,4.6,66,13.6c40.9,17.1,73.5,49.7,90.6,90.6c18.1,42.3,18.1,90.2,0,132.6
			c-8.7,20-21,38.2-36.4,53.6c-15.6,15.5-34,27.8-54.2,36.4C1084.7,494.7,1062.3,499.3,1039.6,499.3 M932.3,329.1
			c0,26.3,9.5,48.9,28.4,67.8c18.9,18.9,41.5,28.3,67.8,28.4h11.1c12.7,0.1,25.3-2.4,37-7.4c11.3-4.8,21.5-11.7,30.2-20.3
			c8.8-8.8,15.7-19.3,20.3-30.8c4.9-11.9,7.4-24.7,7.4-37.6c0-26.3-9.2-48.7-27.7-67.2c-18.5-18.5-40.9-27.8-67.2-27.8h-11.1
			c-26.3,0-48.7,8.8-67.2,26.5s-28.2,39.7-29,66L932.3,329.1z"/>
		<path class="st1" d="M1266.9,499.3c-9.7,0.1-19-3.7-25.9-10.5c-7.4-7-11.1-15.8-11.1-26.5V283.5c-0.1-16.7,3.2-33.3,9.9-48.7
			c12.5-29.8,36.2-53.5,66-66c15.4-6.6,32-10,48.7-9.9h87.5c10.7,0,19.5,3.7,26.5,11.1c6.8,6.9,10.6,16.2,10.5,25.9
			c0,10.7-3.5,19.7-10.5,27.1c-7,7.4-15.8,11.1-26.5,11.1h-87.6c-14,0-25.7,4.7-35.1,14.2c-9.4,9.5-14.2,21.2-14.2,35.1v178.8
			c0,10.7-3.7,19.5-11.1,26.5C1286.6,495.8,1277.6,499.3,1266.9,499.3"/>
		<path class="st1" d="M1637.8,158.9c22.7-0.1,45.2,4.6,66,13.6c41,17.1,73.5,49.7,90.6,90.6c9,20.8,13.6,43.3,13.6,66v133.1
			c0,10.7-3.7,19.5-11.1,26.5c-6.9,6.8-16.2,10.6-25.9,10.5c-8.7,0.1-17.1-2.7-24-8c-7-5.2-11.6-13-13-21.6
			c-28.8,19.7-60.8,29.6-96.2,29.6h-11.1c-23.9,0-46.1-4.5-66.6-13.6c-40.4-17.4-72.6-49.6-90-90c-9.1-20.5-13.6-42.7-13.6-66.6
			c-0.1-22.7,4.5-45.2,13.6-66c8.6-20.2,20.9-38.7,36.4-54.2c15.5-15.4,33.6-27.7,53.6-36.4c20.5-9,42.7-13.6,66.6-13.6
			L1637.8,158.9z M1637.8,425.3c12.7,0.1,25.3-2.4,37-7.4c11.3-4.8,21.5-11.7,30.2-20.3c8.8-8.8,15.7-19.3,20.3-30.8
			c4.9-11.9,7.4-24.7,7.4-37.6c0-26.3-9.2-48.7-27.7-67.2s-40.9-27.8-67.2-27.8h-11.1c-26.3,0-48.9,9.2-67.8,27.8
			s-28.3,40.9-28.4,67.2c0,26.3,9.5,48.9,28.4,67.8s41.5,28.3,67.8,28.4H1637.8z"/>
		<path class="st1" d="M2053.9,170c7.4,7.4,11.1,16,11.1,25.9c0.2,10.2-3.8,20-11.1,27.1c-7.4,7.4-16,11.1-25.9,11.1h-80.1v228.2
			c0,10.7-3.5,19.5-10.5,26.5s-15.8,10.5-26.5,10.5s-19.5-3.5-26.5-10.5s-10.5-15.8-10.5-26.5V234.1h-44.3
			c-10.7,0-19.5-3.7-26.5-11.1c-7-7.4-10.5-16.4-10.5-27.1c-0.1-9.7,3.7-19,10.5-25.9c7-7.4,15.8-11.1,26.5-11.1h44.3V38.7
			c0-10.7,3.5-19.7,10.5-27.1c7-7.4,15.8-11.1,26.5-11.1c10.7,0,19.5,3.7,26.5,11.1c7,7.4,10.5,16.5,10.5,27.1v120.2h80.1
			C2037.9,158.9,2046.5,162.6,2053.9,170"/>
		<path class="st1" d="M2126,35.2c10.7,0,19.5,3.7,26.5,11.1s10.5,16.4,10.5,27.1v16c0,10.7-3.5,19.7-10.5,27.1
			s-15.8,11.1-26.5,11.1c-10.7,0-19.5-3.7-26.5-11.1s-10.5-16.4-10.5-27.1v-16c0-10.7,3.5-19.7,10.5-27.1S2115.3,35.1,2126,35.2
			 M2126,158.9c10.7,0,19.5,3.7,26.5,11.1c6.8,6.9,10.6,16.2,10.5,25.9v266.3c0,10.7-3.5,19.5-10.5,26.5c-7,7-15.8,10.5-26.5,10.5
			c-10.7,0-19.5-3.5-26.5-10.5c-7-7-10.5-15.8-10.5-26.5V195.9c-0.1-9.7,3.7-19,10.5-25.9C2106.5,162.6,2115.3,158.9,2126,158.9"/>
		<path class="st1" d="M2362.7,311.8L2473.1,439c15.5,19.5,12.1,41-3.4,52.5c-18.2,12.8-36.3,10.1-53.1-9.4l-105-117.1l-30.3,30.9
			v61.2c4,55.2-80.7,55.2-76.7,0V41.4c-4-55.2,80.8-55.2,76.7,0v252.2l120.4-115.1c19.5-18.2,37-20.2,53.2-6.1
			c15.5,12.8,15.5,35-1.4,53.2L2362.7,311.8z"/>
		<path class="st2" d="M189.8,614.8h-59c1.3,19.3,12.9,30.7,30.9,30.7c8.4,0.1,16.5-3.3,22.3-9.4c3.6-3.5,6.9-3.5,10.1-0.4
			c2.8,3.2,2.4,6.5-0.9,9.9c-8.4,8.3-19.7,12.9-31.4,12.7c-13.7,0-24.7-4.3-32.9-13.1c-8.1-8.8-12.2-20.2-12.2-34.2
			c0-13.5,4.1-24.9,12.2-34.4c7.6-9.3,19.1-14.5,31.1-14.2c28.4,0,39.5,23.2,39.5,43.8C199.3,612,196.2,614.8,189.8,614.8
			 M131.4,602.5h53.9c-0.2-16.3-9.9-27-25.1-27C144.5,575.5,133.6,586.7,131.4,602.5"/>
		<path class="st2" d="M220.5,571.4c0-5,3-7.7,6.7-7.7c4.5,0,6.7,2.6,6.7,7.7v4.5c6.2-8.1,17.6-13.5,29-13.5
			c23.4,0,36.5,14.6,36.5,40.6v46.4c0,5.2-3.2,7.9-7.1,7.9c-4.7,0-6.9-2.6-6.9-7.9v-47.5c0-17-8.6-26.6-23.4-26.6
			c-18,0-27.7,13.7-27.7,35.6v38.5c0,5.2-2.2,7.9-6.9,7.9s-6.9-2.6-6.9-7.9L220.5,571.4z"/>
		<path class="st2" d="M442.3,614.8h-59c1.3,19.3,12.9,30.7,30.9,30.7c8.4,0.1,16.4-3.3,22.3-9.4c3.6-3.5,6.9-3.5,10.1-0.4
			c2.8,3.2,2.4,6.5-0.9,9.9c-8.4,8.3-19.7,12.9-31.4,12.7c-13.7,0-24.7-4.3-32.9-13.1c-8-8.8-12.2-20.2-12.2-34.2
			c0-13.5,4.1-24.9,12.2-34.4c7.6-9.3,19.1-14.5,31.1-14.2c28.4,0,39.5,23.2,39.5,43.8C451.8,612,448.6,614.8,442.3,614.8
			 M383.9,602.5h53.9c-0.2-16.3-9.9-27-25.1-27C397,575.5,386.1,586.7,383.9,602.5"/>
		<path class="st2" d="M502.4,614.2l-15.5,16.3v18.9c0,5.2-2.2,7.9-6.9,7.9s-6.9-2.6-6.9-7.9V532.1c0-5,3-7.7,6.9-7.7
			c4.7,0,6.9,2.6,6.9,7.7v79.5l42.9-45.3c3.2-3.4,6.4-3.7,9.7-1.1c3.4,3.4,3.4,6.7,0.2,9.9l-27.7,28.6l31.3,41.2
			c3.2,4.3,3.2,8-0.4,10.8c-3.9,2.8-7.5,1.9-10.7-2.6L502.4,614.2z"/>
		<path class="st2" d="M570.9,644.6c-8.8-9.4-13.1-20.8-13.1-34.1s4.3-24.7,13.1-34.1s19.8-14,32.9-14s24.2,4.7,32.9,14
			c9,9.3,13.5,20.8,13.5,34.1c0.2,12.7-4.5,24.9-13.2,34.1c-8.8,9.2-19.8,13.8-33.1,13.8C590.8,658.4,579.7,653.8,570.9,644.6
			 M626.9,635.6c6-6.7,9-15.2,9-25.1s-3-18.3-9-24.9c-6-6.7-13.7-10.1-23-10.1c-8.8-0.2-17.2,3.5-22.9,10.1c-6,6.5-9,15-9,24.9
			s3,18.3,9,25.1c5.8,6.5,14.1,10.1,22.8,9.9C613.2,645.5,620.8,642.1,626.9,635.6"/>
		<path class="st2" d="M671.4,571.4c0-5,3-7.7,6.7-7.7c4.5,0,6.7,2.6,6.7,7.7v4.5c6.2-8.1,17.6-13.5,29-13.5
			c23.4,0,36.5,14.6,36.5,40.6v46.4c0,5.2-3.2,7.9-7.1,7.9c-4.7,0-6.9-2.6-6.9-7.9v-47.5c0-17-8.6-26.6-23.4-26.6
			c-18,0-27.7,13.7-27.7,35.6v38.5c0,5.2-2.2,7.9-6.9,7.9s-6.9-2.6-6.9-7.9L671.4,571.4z"/>
		<path class="st2" d="M781.8,644.6c-8.8-9.4-13.1-20.8-13.1-34.1s4.3-24.7,13.1-34.1s19.8-14,32.9-14s24.1,4.7,32.9,14
			c9,9.3,13.5,20.8,13.5,34.1c0.2,12.7-4.6,24.9-13.3,34.1c-8.8,9.2-19.8,13.8-33.1,13.8C801.7,658.4,790.6,653.8,781.8,644.6
			 M837.8,635.6c6-6.7,9-15.2,9-25.1s-3-18.3-9-24.9c-6-6.7-13.7-10.1-23-10.1c-8.7-0.2-17.1,3.5-22.8,10.1c-6,6.5-9,15-9,24.9
			s3,18.3,9,25.1c5.8,6.5,14.1,10.1,22.8,9.9C824.2,645.5,831.8,642.1,837.8,635.6"/>
		<path class="st2" d="M999.7,601.9c0-17.8-7.1-26.6-21.3-26.6c-15.2,0-23.6,11-23.6,30.5v43.6c0,5.2-2.2,7.9-6.9,7.9
			s-6.9-2.6-6.9-7.9v-46.6c0-18.3-6.9-27.5-20.6-27.5c-14.4,0-24.2,12.7-24.2,30.5v43.6c0,5.2-2.2,7.9-6.9,7.9s-6.9-2.6-6.9-7.9v-78
			c0-5,3-7.7,6.7-7.7c4.5,0,6.7,2.6,6.7,7.7v3.4c6.2-8.2,14.6-12.3,25.5-12.3c13.1,0,22.5,5,28.3,15.2c6.5-9.7,17.6-15.2,29.6-15.2
			c22.5,0,34.4,14.4,34.4,40.6v46.4c0,5.2-2.2,7.9-6.9,7.9s-6.9-2.6-6.9-7.9V601.9z"/>
		<path class="st2" d="M1040.7,527c4.1-3.9,10.6-3.9,14.8,0c4.3,3.9,4.3,10.5,0,14.8c-4.1,4.1-10.7,4.1-14.8,0
			S1036.6,531.1,1040.7,527 M1055.1,649.4c0,5.2-2.2,7.9-6.9,7.9s-6.9-2.6-6.9-7.9v-78c0-5,3-7.7,6.9-7.7c4.7,0,6.9,2.6,6.9,7.7
			V649.4z"/>
		<path class="st2" d="M1113.5,614.2l-15.5,16.3v18.9c0,5.2-2.2,7.9-6.9,7.9s-6.9-2.6-6.9-7.9V532.1c0-5,3-7.7,6.9-7.7
			c4.7,0,6.9,2.6,6.9,7.7v79.5l42.9-45.3c3.2-3.4,6.4-3.7,9.7-1.1c3.4,3.4,3.4,6.7,0.2,9.9l-27.7,28.6l31.2,41.2
			c3.2,4.3,3.2,8-0.4,10.8c-3.9,2.8-7.5,1.9-10.7-2.6L1113.5,614.2z"/>
		<path class="st2" d="M1453.8,614.8h-59c1.3,19.3,12.9,30.7,30.9,30.7c8.4,0.1,16.4-3.3,22.3-9.4c3.6-3.5,6.9-3.5,10.1-0.4
			c2.8,3.2,2.4,6.5-0.9,9.9c-8.4,8.3-19.7,12.9-31.4,12.7c-13.7,0-24.7-4.3-32.9-13.1c-8-8.8-12.2-20.2-12.2-34.2
			c0-13.5,4.1-24.9,12.2-34.4c7.6-9.3,19.1-14.5,31.1-14.2c28.4,0,39.5,23.2,39.5,43.8C1463.3,612,1460.1,614.8,1453.8,614.8
			 M1395.4,602.5h53.9c-0.2-16.3-9.9-27-25.1-27C1408.5,575.5,1397.6,586.7,1395.4,602.5"/>
		<path class="st2" d="M1484.5,571.4c0-5,3-7.7,6.7-7.7c4.5,0,6.7,2.6,6.7,7.7v4.5c6.2-8.1,17.6-13.5,29-13.5
			c23.4,0,36.5,14.6,36.5,40.6v46.4c0,5.2-3.2,7.9-7.1,7.9c-4.7,0-6.9-2.6-6.9-7.9v-47.5c0-17-8.6-26.6-23.4-26.6
			c-18,0-27.7,13.7-27.7,35.6v38.5c0,5.2-2.2,7.9-6.9,7.9s-6.9-2.6-6.9-7.9L1484.5,571.4z"/>
		<path class="st2" d="M1637.4,571.2c0-10.3,13.5-10.3,13.5,0v5.8c8.4-9.7,18.7-14.6,31.3-14.6s22.7,4.7,30.7,13.8s12,20.6,12,34.1
			s-3.9,24.9-12,34.3c-8,9.2-18.2,13.8-30.7,13.8c-12.3,0-22.7-4.9-30.9-14.4v41.7c0,5.2-2.2,7.9-6.9,7.9s-6.9-2.6-6.9-7.9
			L1637.4,571.2z M1710.6,610.3c0-10.1-2.6-18.5-8.1-25.1s-12.5-9.9-21.7-9.9s-16.5,3.4-21.9,9.9s-8,15-8,25.1s2.6,18.5,8,25.1
			s12.7,9.9,21.9,9.9s16.3-3.4,21.7-9.9S1710.6,620.4,1710.6,610.3"/>
		<path class="st2" d="M1759.9,617.2v32.2c0,5.2-2.2,7.9-6.9,7.9s-6.9-2.6-6.9-7.9v-78c0-5,3-7.7,6.7-7.7c4.5,0,6.7,2.6,6.7,7.7v4.9
			c7.1-8.6,17-12.9,29.9-12.9l6.7,0.7c4.3,0.9,6.4,3.2,6.4,6.9c0,3.9-2.8,6.9-7.9,6.2c-1.7-0.3-3.5-0.5-5.2-0.6
			C1768.7,576.6,1759.9,587.9,1759.9,617.2"/>
		<path class="st2" d="M1815.1,586.2c-2.8-2.4-3-6,0.2-9.7c7.5-8,19.8-14,31.6-14c21.9,0,35,12.7,35,35.9v51.3
			c0,10.1-13.5,10.1-13.5,0v-3.6c-6.2,6.9-17.2,12.4-29.4,12.4c-17.2,0-30-10.3-30-27c0-16.3,13.7-26.6,33.9-28.8l25.1-3v-2.8
			c0-14-8-21.5-21.3-21.5c-7.7,0-15,3.2-22.1,9.7C1821,588.2,1817.8,588.6,1815.1,586.2 M1839.7,646.1c11.4,0,22.8-6.4,28.3-14.6
			v-18.9l-24.3,3c-13.9,1.7-20.8,7.1-20.8,16.3C1822.9,640.3,1829.4,646.1,1839.7,646.1"/>
		<path class="st2" d="M1946.5,650.2c0,4.3-2.8,6.4-8.2,6.4c-20.2,0-28.8-6.5-28.8-28.8v-50.3h-9.5c-4.9,0-7.3-2.1-7.3-6.4
			s2.4-6.4,7.3-6.4h9.5v-18.7c0-5.2,2.2-7.9,6.9-7.9s6.9,2.6,6.9,7.9v18.7h15.9c4.9,0,7.3,2.1,7.3,6.4s-2.4,6.4-7.3,6.4h-15.9v49.4
			c0,13.5,3.2,17,16.1,17C1944.1,643.8,1946.5,645.9,1946.5,650.2"/>
		<path class="st2" d="M1969.1,527c4.1-3.9,10.7-3.9,14.8,0c4.3,3.9,4.3,10.5,0,14.8c-4,4.2-10.6,4.3-14.8,0.3
			c-4.2-4-4.3-10.6-0.3-14.8C1969,527.2,1969,527.1,1969.1,527 M1983.6,649.4c0,5.2-2.2,7.9-6.9,7.9s-6.9-2.6-6.9-7.9v-78
			c0-5,3-7.7,6.9-7.7c4.7,0,6.9,2.6,6.9,7.7V649.4z"/>
		<path class="st2" d="M2042,614.2l-15.5,16.3v18.9c0,5.2-2.2,7.9-6.9,7.9s-6.9-2.6-6.9-7.9V532.1c0-5,3-7.7,6.9-7.7
			c4.7,0,6.9,2.6,6.9,7.7v79.5l42.9-45.3c3.2-3.4,6.4-3.7,9.7-1.1c3.4,3.4,3.4,6.7,0.2,9.9l-27.7,28.6l31.2,41.2
			c3.2,4.3,3.2,8-0.4,10.8c-3.9,2.8-7.5,1.9-10.7-2.6L2042,614.2z"/>
		<path class="st2" d="M2248.2,641.2l19.6-70.9c1.5-5.2,4.5-7.3,8.8-6.4c4.3,0.8,6.7,4.3,5.2,9.5l-22.3,75.2
			c-1.7,5.8-5.2,8.6-11,8.6c-5.6,0-9.2-2.8-10.9-8.4l-20-68.3l-19.8,68.1c-1.7,5.8-5.2,8.6-11,8.6c-5.6,0-9.2-2.8-10.9-8.4
			l-22.5-75.4c-1.5-5.2,0.9-8.8,5.2-9.5c4.5-1.1,7.5,0.9,8.8,6.4l19.6,70.9l19.1-68.5c1.7-6,5.4-9,11.6-9c5.8,0,9.5,3,11.2,8.8
			L2248.2,641.2z"/>
		<path class="st2" d="M2365,614.8h-58.9c1.3,19.3,12.9,30.7,30.9,30.7c8.4,0.1,16.4-3.3,22.3-9.4c3.6-3.5,6.9-3.5,10.1-0.4
			c2.8,3.2,2.4,6.5-0.9,9.9c-8.3,8.3-19.6,12.9-31.4,12.7c-13.7,0-24.7-4.3-32.9-13.1c-8.1-8.8-12.2-20.2-12.2-34.2
			c0-13.5,4.1-24.9,12.2-34.4c7.6-9.3,19.1-14.5,31.1-14.2c28.4,0,39.5,23.2,39.5,43.8C2374.6,612,2371.4,614.8,2365,614.8
			 M2306.7,602.5h53.9c-0.2-16.3-9.9-27-25.1-27C2319.8,575.5,2308.9,586.7,2306.7,602.5"/>
		<path class="st2" d="M2409.6,532.3v44.5c8.2-9.5,18.5-14.4,30.9-14.4c12.5,0,22.6,4.7,30.7,14c8,9.2,12,20.6,12,34.1
			s-3.9,24.9-12,34.1s-18.1,13.8-30.7,13.8s-22.8-4.9-31.2-14.6v5.8c0,10.1-13.5,10.1-13.5,0V532.3 M2468.9,610.5
			c0-10.1-2.6-18.5-8-25.1s-12.5-9.9-21.7-9.9s-16.5,3.4-21.9,9.9s-8,15-8,25.1s2.6,18.5,8,25.1s12.7,9.9,21.9,9.9
			s16.3-3.4,21.7-9.9S2468.9,620.6,2468.9,610.5"/>
		<path class="st0" d="M1226.9,588c19.3-19.1,50.4-19.1,69.6,0c19.1,18.4,19.1,49.8,0,68.9c-19.3,19.1-50.4,19.1-69.6,0
			C1207.8,637.8,1207.8,606.4,1226.9,588"/>
		<path class="st0" d="M1636.2,400.2c9.4,0.1,18.7-1.8,27.3-5.5c8.3-3.5,15.9-8.6,22.3-15c6.5-6.5,11.6-14.2,15-22.7
			c3.6-8.8,5.5-18.2,5.5-27.7c0-19.4-6.8-35.9-20.5-49.6s-30.2-20.5-49.6-20.5h-8.2c-19.4,0-36.1,6.8-50,20.5s-20.9,30.2-20.9,49.6
			c0,19.4,7,36.1,20.9,50s30.6,20.9,50,20.9L1636.2,400.2z"/>
		<path class="st1" d="M1611.2,372.4l-21.2-21.2c-2.4-2.4-2.4-6.4,0-8.9c0,0,0,0,0,0l0,0c2.4-2.4,6.4-2.4,8.8,0l17.7,17.7
			c0.5,0.5,1.3,0.5,1.8,0l57.8-57.8c2.4-2.4,6.4-2.4,8.8,0c0,0,0,0,0,0l0,0c2.4,2.4,2.4,6.4,0,8.8c0,0,0,0,0,0l-61.3,61.3
			c-1.2,1.2-2.8,1.8-4.4,1.8h-3.7C1614,374.3,1612.4,373.6,1611.2,372.4"/>
	</g>
</g>
</svg>
