<svg xmlns="http://www.w3.org/2000/svg" viewBox="0 0 1001.6 334.6"><defs><style>.cls-1{fill:#fff;}.cls-2{fill:#e44f26;}.cls-3{fill:#f1672a;}.cls-4{fill:#ebebeb;}</style></defs><g id="Layer_2" data-name="Layer 2"><g id="Layer_1-2" data-name="Layer 1"><path class="cls-1" d="M0,87.8H53.2v52.5h48.6V87.8H155v159H101.8V193.6H53.2v53.2H0Zm224.8,52.7H177.9V87.8H324.6v52.7H277.8V246.8H224.6V140.5ZM348,87.8h55.4l34.1,55.9,34.1-55.9h55.3v159H474V168l-36.6,56.5h-.9L400.1,168v78.8h-52Zm205.4,0h53.2V194.3h74.7v52.6H553.4Z"/><path class="cls-2" d="M706.6,0h295L974.7,301.1,853.9,334.6,733.4,301.2Z"/><path class="cls-3" d="M951.7,281.9l23-257.3H854.2V309Z"/><path class="cls-4" d="M805.2,136.3l-3.4-37.8h52.3V61.6H761.5l10,111.7h82.6v-37Zm-32.1,55.4,5.2,58,75.7,21h.2V232.3H854l-41-11.2-2.6-29.5h-20Z"/><path class="cls-1" d="M938.9,146.2l.9-9.9H854v36.9h45.5l-4.3,47.9L854,232.2v38.4l75.7-21,.6-6.2ZM854,98.5h89.2l3.3-37H854v37Z"/></g></g></svg>